<svg xmlns="http://www.w3.org/2000/svg" viewBox="0 0 395.02 287"><defs><style>.cls-1{fill:#614b1c;}</style></defs><title>Ресурс 2</title><g id="Слой_2" data-name="Слой 2"><g id="Layer_1" data-name="Layer 1"><path class="cls-1" d="M154.24,97.31h11v13.87a30,30,0,0,1-12,2.63q-8.15,0-13-4.74a15.75,15.75,0,0,1-4.85-11.72,16.28,16.28,0,0,1,5-12.21,17.44,17.44,0,0,1,12.63-4.87,21.83,21.83,0,0,1,5.25.61,40.75,40.75,0,0,1,6.28,2.18v4.78A23,23,0,0,0,153,84.44a12.33,12.33,0,0,0-9.05,3.66,13,13,0,0,0,0,18.09,13.09,13.09,0,0,0,9.47,3.54,22.06,22.06,0,0,0,6.72-1.29l.45-.14v-6.82h-6.31Z"/><path class="cls-1" d="M174.62,113.43V80.69h8.2a11.8,11.8,0,0,1,7.88,2.46,8.25,8.25,0,0,1,2.93,6.66,8.2,8.2,0,0,1-5.53,8.06,14.62,14.62,0,0,1,3.07,2.81,58.27,58.27,0,0,1,4.22,6.21q1.71,2.79,2.74,4.2l1.73,2.34h-5.57l-1.43-2.15c-.05-.08-.15-.22-.29-.4l-.91-1.29-1.45-2.39-1.57-2.56a25.07,25.07,0,0,0-2.68-3.21,9.21,9.21,0,0,0-2.17-1.71,7.15,7.15,0,0,0-3.26-.54h-1.22v14.25Zm6.09-28.76h-1.4V95h1.78A13,13,0,0,0,186,94.4,4.56,4.56,0,0,0,188,92.57a5.32,5.32,0,0,0,.75-2.81A5,5,0,0,0,188,87a4.38,4.38,0,0,0-2.32-1.78A16.69,16.69,0,0,0,180.71,84.67Z"/><path class="cls-1" d="M216.35,80.5h3.3l14.65,32.93h-4.8l-4.36-9.7H211.22l-4.13,9.7h-4.8Zm6.87,19.06L217.94,87.7,213,99.56Z"/><path class="cls-1" d="M266.33,80.69h4.45v32.74h-4L244.86,88.24v25.19h-4.41V80.69h3.8l22.08,25.41Z"/><path class="cls-1" d="M280.26,113.38V80.69h11q6.68,0,10.57,2a15,15,0,0,1,6.19,5.88,16.38,16.38,0,0,1,2.29,8.48,16.13,16.13,0,0,1-10.43,15.1,17,17,0,0,1-3.4,1,47.19,47.19,0,0,1-5.9.23Zm10.55-28.52H285v24.35h6a24.15,24.15,0,0,0,5.46-.47,13.17,13.17,0,0,0,3.23-1.21A11.16,11.16,0,0,0,302,105.7a12.16,12.16,0,0,0,3.47-8.89,11.26,11.26,0,0,0-3.56-8.6,11.44,11.44,0,0,0-3-2,12.26,12.26,0,0,0-3.21-1A32.77,32.77,0,0,0,290.81,84.86Z"/><path class="cls-1" d="M146.64,163.43H135.55V130.69h8.58a14.89,14.89,0,0,1,6.33,1.1,8,8,0,0,1,3.46,3,8.1,8.1,0,0,1,1.2,4.41q0,4.83-5,6.91a10,10,0,0,1,5.69,2.95A7.7,7.7,0,0,1,158,154.5a8,8,0,0,1-1.29,4.48,9.42,9.42,0,0,1-3.8,3.21A13.85,13.85,0,0,1,146.64,163.43Zm-2.37-28.57h-4v9.84h3.11c2.5,0,4.28-.47,5.32-1.42a4.74,4.74,0,0,0,1.6-3.71Q150.27,134.86,144.27,134.86Zm.35,14h-4.38v10.38h4.61a15.23,15.23,0,0,0,5.21-.59,4.94,4.94,0,0,0,2.2-1.87,4.84,4.84,0,0,0,.84-2.72,4.56,4.56,0,0,0-.89-2.74,5,5,0,0,0-2.48-1.85A15.53,15.53,0,0,0,144.62,148.88Z"/><path class="cls-1" d="M176.43,130.5h3.31l14.65,32.93h-4.81l-4.36-9.7H171.3l-4.12,9.7h-4.81Zm6.87,19.06L178,137.7l-4.9,11.86Z"/><path class="cls-1" d="M200.4,130.69h4.68v28.48h14.75v4.26H200.4Z"/><path class="cls-1" d="M226.33,130.69H231v28.48h14.75v4.26H226.33Z"/><path class="cls-1" d="M252.4,163.43V130.69h8.2a11.82,11.82,0,0,1,7.88,2.46,8.25,8.25,0,0,1,2.93,6.66,8.2,8.2,0,0,1-5.53,8.06,14.62,14.62,0,0,1,3.07,2.81,57.06,57.06,0,0,1,4.21,6.21c1.15,1.86,2.06,3.26,2.75,4.2l1.73,2.34h-5.58l-1.43-2.15a3.09,3.09,0,0,0-.28-.4l-.91-1.29L268,157.2l-1.58-2.56a24.29,24.29,0,0,0-2.67-3.21,9,9,0,0,0-2.18-1.71,7.07,7.07,0,0,0-3.25-.54h-1.22v14.25Zm6.09-28.76h-1.4V145h1.78a13,13,0,0,0,4.87-.61,4.61,4.61,0,0,0,2.07-1.83,5.32,5.32,0,0,0,.75-2.81,5,5,0,0,0-.82-2.79,4.4,4.4,0,0,0-2.33-1.78A16.57,16.57,0,0,0,258.49,134.67Z"/><path class="cls-1" d="M296.85,130.22A17.56,17.56,0,0,1,309.48,135a15.91,15.91,0,0,1,5.06,12,15.68,15.68,0,0,1-5.11,12,18.09,18.09,0,0,1-12.84,4.74,17.13,17.13,0,0,1-12.35-4.74,15.88,15.88,0,0,1-4.93-11.9,16.18,16.18,0,0,1,5-12.14A17.33,17.33,0,0,1,296.85,130.22Zm.18,4.45a12.76,12.76,0,0,0-9.25,3.52,12,12,0,0,0-3.61,9A11.77,11.77,0,0,0,287.8,156a13.49,13.49,0,0,0,18.23-.07,11.94,11.94,0,0,0,3.68-8.93,11.62,11.62,0,0,0-3.68-8.74A12.36,12.36,0,0,0,297,134.67Z"/><path class="cls-1" d="M338.76,130.22A17.54,17.54,0,0,1,351.39,135a15.88,15.88,0,0,1,5.07,12,15.71,15.71,0,0,1-5.11,12,18.1,18.1,0,0,1-12.85,4.74,17.16,17.16,0,0,1-12.35-4.74,15.87,15.87,0,0,1-4.92-11.9,16.18,16.18,0,0,1,5-12.14A17.31,17.31,0,0,1,338.76,130.22Zm.19,4.45a12.79,12.79,0,0,0-9.26,3.52,12,12,0,0,0-3.61,9,11.77,11.77,0,0,0,3.63,8.81,13.5,13.5,0,0,0,18.24-.07,12,12,0,0,0,3.68-8.93,11.65,11.65,0,0,0-3.68-8.74A12.39,12.39,0,0,0,339,134.67Z"/><path class="cls-1" d="M390.66,130.69H395v32.74h-4.71V138l-10.08,12.66h-.87L369.19,138v25.48h-4.68V130.69h4.4l10.9,13.45Z"/><path class="cls-1" d="M138.71,194l5.74,6.48h-2L137,194.38v6.05h-1.67v-12.6H137v5.69l5.26-5.69h2.05Z"/><path class="cls-1" d="M145.64,194.13a6.49,6.49,0,1,1,1.89,4.63A6.39,6.39,0,0,1,145.64,194.13Zm11.38,0a4.77,4.77,0,0,0-1.4-3.49,4.61,4.61,0,0,0-3.46-1.42,4.66,4.66,0,0,0-3.47,1.42,5.08,5.08,0,0,0,0,7,4.69,4.69,0,0,0,3.47,1.41,4.64,4.64,0,0,0,3.46-1.41A4.83,4.83,0,0,0,157,194.13Z"/><path class="cls-1" d="M169.94,193.18v-5.35h1.66v12.6h-1.66v-5.67h-6.12v5.67h-1.67v-12.6h1.67v5.35Z"/><path class="cls-1" d="M175.73,187.83h7.08v1.59h-5.4v11h-1.68Z"/><path class="cls-1" d="M185.91,187.83h4.57a4.05,4.05,0,1,1,0,8.1h-2.9v4.5h-1.67Zm1.67,6.54h2.9a2.27,2.27,0,0,0,1.73-.71,2.49,2.49,0,0,0,.68-1.78,2.43,2.43,0,0,0-.68-1.78,2.31,2.31,0,0,0-1.73-.7h-2.9Z"/><path class="cls-1" d="M199.64,194.85v4h5.85v1.58H198v-12.6h7.43v1.59h-5.76v3.87H205v1.56Z"/><path class="cls-1" d="M214.79,200.67a6.54,6.54,0,1,1,0-13.07,6.19,6.19,0,0,1,3.16.83,5.86,5.86,0,0,1,2.27,2.23l-1.46.84a4,4,0,0,0-1.62-1.65,4.5,4.5,0,0,0-2.35-.63,4.91,4.91,0,1,0,0,9.81,4.68,4.68,0,0,0,2.35-.61,4.16,4.16,0,0,0,1.62-1.66l1.46.83a6.07,6.07,0,0,1-2.25,2.25A6.29,6.29,0,0,1,214.79,200.67Z"/><path class="cls-1" d="M229.44,200.67a6.54,6.54,0,1,1,0-13.07,6.23,6.23,0,0,1,3.17.83,5.93,5.93,0,0,1,2.27,2.23l-1.46.84a4,4,0,0,0-1.62-1.65,4.53,4.53,0,0,0-2.36-.63,4.77,4.77,0,0,0-3.56,1.4,4.82,4.82,0,0,0-1.37,3.51,4.92,4.92,0,0,0,7.29,4.29,4.16,4.16,0,0,0,1.62-1.66l1.46.83a6.07,6.07,0,0,1-2.25,2.25A6.3,6.3,0,0,1,229.44,200.67Z"/><path class="cls-1" d="M244.49,195.66h-6.57v-1.51h6.57Z"/><path class="cls-1" d="M144.43,211.83v11h1.35v4h-1.67v-2.41h-8.82v-12.6H137v11h5.8v-11Z"/><path class="cls-1" d="M150.83,218.85v4h5.85v1.58h-7.52v-12.6h7.43v1.59h-5.76v3.87h5.31v1.56Z"/><path class="cls-1" d="M167.94,217.18v-5.35h1.65v12.6h-1.65v-5.67h-6.12v5.67h-1.68v-12.6h1.68v5.35Z"/><path class="cls-1" d="M172.7,211.83h9.09v1.59h-3.72v11h-1.66v-11H172.7Z"/><path class="cls-1" d="M184.89,211.83h4.57a4.05,4.05,0,1,1,0,8.1h-2.9v4.5h-1.67Zm1.67,6.54h2.9a2.27,2.27,0,0,0,1.73-.71,2.49,2.49,0,0,0,.68-1.78,2.43,2.43,0,0,0-.68-1.78,2.31,2.31,0,0,0-1.73-.7h-2.9Z"/><path class="cls-1" d="M200.65,8.78A139.5,139.5,0,1,0,299.33,179l3.87,1A143.49,143.49,0,1,1,280,58.46l-3.23,2.37A139.53,139.53,0,0,0,200.65,8.78Z"/><path class="cls-1" d="M179.71,8.78A139.5,139.5,0,1,0,278.4,179l3.87,1a143.5,143.5,0,1,1-23.18-121.6l-3.22,2.37A139.55,139.55,0,0,0,179.71,8.78Z"/></g></g></svg>